<mxfile host="app.diagrams.net" modified="2024-07-13T02:10:48.577Z" agent="Mozilla/5.0 (Windows NT 10.0; Win64; x64) AppleWebKit/537.36 (KHTML, like Gecko) Chrome/109.0.0.0 Safari/537.36 SLBrowser/9.0.3.5211 SLBChan/33" etag="oX3iDqeDxb3Ewvrq-D7t" version="24.6.4" type="github">
  <diagram name="第 1 页" id="ul-J1MMFNKTz2fmG2EUL">
    <mxGraphModel dx="1075" dy="451" grid="1" gridSize="10" guides="1" tooltips="1" connect="1" arrows="1" fold="1" page="1" pageScale="1" pageWidth="827" pageHeight="1169" math="0" shadow="0">
      <root>
        <mxCell id="0" />
        <mxCell id="1" parent="0" />
        <mxCell id="aF8usSjiDctqisSEKGAt-1" value="&lt;font style=&quot;font-size: 14px;&quot;&gt;1&lt;/font&gt;" style="ellipse;whiteSpace=wrap;html=1;aspect=fixed;" vertex="1" parent="1">
          <mxGeometry x="310" y="160" width="40" height="40" as="geometry" />
        </mxCell>
        <mxCell id="aF8usSjiDctqisSEKGAt-2" value="&lt;font style=&quot;font-size: 14px;&quot;&gt;2&lt;/font&gt;" style="ellipse;whiteSpace=wrap;html=1;aspect=fixed;" vertex="1" parent="1">
          <mxGeometry x="260" y="230" width="40" height="40" as="geometry" />
        </mxCell>
        <mxCell id="aF8usSjiDctqisSEKGAt-3" value="&lt;span style=&quot;font-size: 14px;&quot;&gt;3&lt;/span&gt;" style="ellipse;whiteSpace=wrap;html=1;aspect=fixed;" vertex="1" parent="1">
          <mxGeometry x="360" y="230" width="40" height="40" as="geometry" />
        </mxCell>
        <mxCell id="aF8usSjiDctqisSEKGAt-4" value="&lt;font style=&quot;font-size: 14px;&quot;&gt;5&lt;/font&gt;" style="ellipse;whiteSpace=wrap;html=1;aspect=fixed;" vertex="1" parent="1">
          <mxGeometry x="330" y="300" width="40" height="40" as="geometry" />
        </mxCell>
        <mxCell id="aF8usSjiDctqisSEKGAt-5" value="&lt;font style=&quot;font-size: 14px;&quot;&gt;6&lt;/font&gt;" style="ellipse;whiteSpace=wrap;html=1;aspect=fixed;" vertex="1" parent="1">
          <mxGeometry x="394" y="300" width="40" height="40" as="geometry" />
        </mxCell>
        <mxCell id="aF8usSjiDctqisSEKGAt-6" value="&lt;font style=&quot;font-size: 14px;&quot;&gt;4&lt;/font&gt;" style="ellipse;whiteSpace=wrap;html=1;aspect=fixed;" vertex="1" parent="1">
          <mxGeometry x="220" y="300" width="40" height="40" as="geometry" />
        </mxCell>
        <mxCell id="aF8usSjiDctqisSEKGAt-7" value="7" style="ellipse;whiteSpace=wrap;html=1;aspect=fixed;" vertex="1" parent="1">
          <mxGeometry x="360" y="370" width="40" height="40" as="geometry" />
        </mxCell>
        <mxCell id="aF8usSjiDctqisSEKGAt-8" value="" style="endArrow=classic;html=1;rounded=0;exitX=1;exitY=1;exitDx=0;exitDy=0;entryX=0.358;entryY=0.017;entryDx=0;entryDy=0;entryPerimeter=0;" edge="1" parent="1" source="aF8usSjiDctqisSEKGAt-1" target="aF8usSjiDctqisSEKGAt-3">
          <mxGeometry width="50" height="50" relative="1" as="geometry">
            <mxPoint x="380" y="240" as="sourcePoint" />
            <mxPoint x="430" y="190" as="targetPoint" />
          </mxGeometry>
        </mxCell>
        <mxCell id="aF8usSjiDctqisSEKGAt-9" value="" style="endArrow=classic;html=1;rounded=0;exitX=0;exitY=1;exitDx=0;exitDy=0;entryX=0.708;entryY=-0.033;entryDx=0;entryDy=0;entryPerimeter=0;" edge="1" parent="1" source="aF8usSjiDctqisSEKGAt-1" target="aF8usSjiDctqisSEKGAt-2">
          <mxGeometry width="50" height="50" relative="1" as="geometry">
            <mxPoint x="380" y="190" as="sourcePoint" />
            <mxPoint x="430" y="140" as="targetPoint" />
          </mxGeometry>
        </mxCell>
        <mxCell id="aF8usSjiDctqisSEKGAt-10" value="" style="endArrow=classic;html=1;rounded=0;exitX=1;exitY=1;exitDx=0;exitDy=0;entryX=0.358;entryY=0;entryDx=0;entryDy=0;entryPerimeter=0;" edge="1" parent="1" source="aF8usSjiDctqisSEKGAt-3" target="aF8usSjiDctqisSEKGAt-5">
          <mxGeometry width="50" height="50" relative="1" as="geometry">
            <mxPoint x="470" y="280" as="sourcePoint" />
            <mxPoint x="520" y="230" as="targetPoint" />
          </mxGeometry>
        </mxCell>
        <mxCell id="aF8usSjiDctqisSEKGAt-11" value="" style="endArrow=classic;html=1;rounded=0;exitX=0.175;exitY=1;exitDx=0;exitDy=0;exitPerimeter=0;entryX=0.5;entryY=0;entryDx=0;entryDy=0;" edge="1" parent="1" source="aF8usSjiDctqisSEKGAt-3" target="aF8usSjiDctqisSEKGAt-4">
          <mxGeometry width="50" height="50" relative="1" as="geometry">
            <mxPoint x="490" y="290" as="sourcePoint" />
            <mxPoint x="540" y="240" as="targetPoint" />
          </mxGeometry>
        </mxCell>
        <mxCell id="aF8usSjiDctqisSEKGAt-12" value="" style="endArrow=classic;html=1;rounded=0;exitX=0.258;exitY=1;exitDx=0;exitDy=0;exitPerimeter=0;entryX=1;entryY=0;entryDx=0;entryDy=0;" edge="1" parent="1" source="aF8usSjiDctqisSEKGAt-2" target="aF8usSjiDctqisSEKGAt-6">
          <mxGeometry width="50" height="50" relative="1" as="geometry">
            <mxPoint x="230" y="410" as="sourcePoint" />
            <mxPoint x="280" y="360" as="targetPoint" />
          </mxGeometry>
        </mxCell>
        <mxCell id="aF8usSjiDctqisSEKGAt-13" value="" style="endArrow=classic;html=1;rounded=0;exitX=1;exitY=1;exitDx=0;exitDy=0;entryX=0.5;entryY=0;entryDx=0;entryDy=0;" edge="1" parent="1" source="aF8usSjiDctqisSEKGAt-4" target="aF8usSjiDctqisSEKGAt-7">
          <mxGeometry width="50" height="50" relative="1" as="geometry">
            <mxPoint x="510" y="390" as="sourcePoint" />
            <mxPoint x="560" y="340" as="targetPoint" />
          </mxGeometry>
        </mxCell>
      </root>
    </mxGraphModel>
  </diagram>
</mxfile>
